<svg width="301" height="301" viewBox="0 0 301 301" fill="none" xmlns="http://www.w3.org/2000/svg">
<path d="M77.2539 218.066C76.5508 215.137 76.5508 211.797 77.2539 208.047C78.0742 204.18 79.1875 200.312 80.5938 196.445C82 192.578 83.5234 188.887 85.1641 185.371C86.8047 181.738 88.1523 178.75 89.207 176.406C89.793 175 90.6719 172.949 91.8438 170.254C93.1328 167.559 94.5391 164.512 96.0625 161.113C97.7031 157.715 99.3438 154.141 100.984 150.391C102.742 146.641 104.383 143.066 105.906 139.668C107.547 136.27 108.953 133.281 110.125 130.703C111.414 128.008 112.352 126.016 112.938 124.727C110.945 124.375 108.074 124.551 104.324 125.254C100.691 125.957 96.6484 126.895 92.1953 128.066C87.7422 129.121 83.1719 130.234 78.4844 131.406C73.7969 132.578 69.4023 133.457 65.3008 134.043C61.3164 134.512 57.8594 134.57 54.9297 134.219C52.1172 133.75 50.3594 132.52 49.6562 130.527C50.4766 129.004 53.4648 127.246 58.6211 125.254C63.7773 123.262 70.3398 121.211 78.3086 119.102C86.3945 116.875 95.3594 114.648 105.203 112.422C115.164 110.195 125.301 108.086 135.613 106.094C145.926 104.102 156.004 102.285 165.848 100.645C175.691 99.0039 184.48 97.6562 192.215 96.6016C199.949 95.5469 206.16 94.8438 210.848 94.4922C215.652 94.1406 218.172 94.2578 218.406 94.8438C218.758 95.7812 218.816 96.9531 218.582 98.3594C218.348 99.6484 217.586 100.469 216.297 100.82C210.555 101.758 204.344 102.812 197.664 103.984C190.984 105.039 184.188 106.211 177.273 107.5C170.477 108.672 163.797 109.902 157.234 111.191C150.672 112.363 144.578 113.535 138.953 114.707C135.32 115.41 131.805 117.52 128.406 121.035C125.008 124.551 121.727 128.945 118.562 134.219C115.398 139.375 112.352 145.176 109.422 151.621C106.492 157.949 103.68 164.395 100.984 170.957C98.4062 177.52 96.0039 183.848 93.7773 189.941C91.5508 196.035 89.5 201.426 87.625 206.113C85.75 210.684 84.1094 214.258 82.7031 216.836C81.2969 219.414 80.125 220.469 79.1875 220C78.9531 219.766 78.6016 219.414 78.1328 218.945C77.6641 218.477 77.3711 218.184 77.2539 218.066ZM160.574 218.066C159.988 217.832 158.582 217.188 156.355 216.133C154.246 215.078 152.254 213.848 150.379 212.441C148.504 211.035 147.156 209.57 146.336 208.047C145.633 206.523 146.395 205.234 148.621 204.18C149.91 205.352 151.668 206.758 153.895 208.398C156.238 210.039 158.465 211.27 160.574 212.09C167.02 212.441 173.289 212.5 179.383 212.266C185.477 211.914 191.395 211.152 197.137 209.98C202.996 208.691 208.621 206.816 214.012 204.355C219.52 201.777 224.852 198.438 230.008 194.336C235.75 189.531 239.5 185.137 241.258 181.152C243.133 177.051 243.484 173.301 242.312 169.902C241.258 166.387 238.973 163.164 235.457 160.234C232.059 157.188 227.957 154.375 223.152 151.797C218.465 149.102 213.426 146.641 208.035 144.414C202.645 142.07 197.488 139.844 192.566 137.734C187.645 135.508 183.191 133.34 179.207 131.23C175.223 129.121 172.293 126.953 170.418 124.727C169.949 122.734 170.945 120.391 173.406 117.695C175.867 115 179.266 112.246 183.602 109.434C187.938 106.504 192.918 103.633 198.543 100.82C204.168 97.8906 209.91 95.2539 215.77 92.9102C221.746 90.5664 227.488 88.5742 232.996 86.9336C238.621 85.293 243.543 84.2969 247.762 83.9453C251.98 83.4766 255.203 83.7695 257.43 84.8242C259.656 85.8789 260.418 87.8711 259.715 90.8008C258.895 90.918 256.785 91.4453 253.387 92.3828C249.988 93.3203 245.828 94.4922 240.906 95.8984C236.102 97.3047 230.828 98.9453 225.086 100.82C219.461 102.695 213.895 104.688 208.387 106.797C202.879 108.789 197.781 110.84 193.094 112.949C188.406 115.059 184.715 117.109 182.02 119.102C179.324 121.094 177.801 122.91 177.449 124.551C177.215 126.191 178.797 127.598 182.195 128.77C199.305 133.926 212.723 139.434 222.449 145.293C232.293 151.035 239.207 156.895 243.191 162.871C247.176 168.73 248.699 174.531 247.762 180.273C246.824 186.016 244.246 191.348 240.027 196.27C235.926 201.191 230.535 205.586 223.855 209.453C217.176 213.203 210.086 216.133 202.586 218.242C195.203 220.352 187.762 221.465 180.262 221.582C172.879 221.699 166.316 220.527 160.574 218.066Z" fill="white"/>
<rect x="6.12622" y="6.12646" width="288" height="288" rx="18" stroke="white" stroke-width="12" stroke-linejoin="round"/>
</svg>
